<?xml version="1.0" encoding="UTF-8" standalone="no"?><!-- Generator: Gravit.io --><svg xmlns="http://www.w3.org/2000/svg" xmlns:xlink="http://www.w3.org/1999/xlink" style="isolation:isolate" viewBox="565.751 630.502 1104.672 223.92" width="1104.672pt" height="223.92pt"><defs><clipPath id="_clipPath_5DVesoae6NUGOTb6XLj5fZxM8B8CxkHG"><rect x="565.751" y="630.502" width="1104.672" height="223.92"/></clipPath></defs><g clip-path="url(#_clipPath_5DVesoae6NUGOTb6XLj5fZxM8B8CxkHG)"><path d=" M 908.473 851.312 L 908.473 633.612 L 960.099 633.612 L 960.099 633.612 Q 986.534 633.612 998.663 645.897 L 998.663 645.897 L 998.663 645.897 Q 1010.792 658.181 1010.792 683.683 L 1010.792 683.683 L 1010.792 692.391 L 1010.792 692.391 Q 1010.792 709.185 1005.35 719.759 L 1005.35 719.759 L 1005.35 719.759 Q 999.907 730.333 988.711 734.998 L 988.711 734.998 L 988.711 735.62 L 988.711 735.62 Q 1014.213 744.328 1014.213 781.026 L 1014.213 781.026 L 1014.213 799.686 L 1014.213 799.686 Q 1014.213 824.877 1000.996 838.095 L 1000.996 838.095 L 1000.996 838.095 Q 987.778 851.312 962.276 851.312 L 962.276 851.312 L 908.473 851.312 L 908.473 851.312 Z  M 942.683 722.247 L 956.056 722.247 L 956.056 722.247 Q 966.319 722.247 971.45 716.96 L 971.45 716.96 L 971.45 716.96 Q 976.582 711.673 976.582 699.233 L 976.582 699.233 L 976.582 687.104 L 976.582 687.104 Q 976.582 675.286 972.383 669.999 L 972.383 669.999 L 972.383 669.999 Q 968.185 664.712 959.166 664.712 L 959.166 664.712 L 942.683 664.712 L 942.683 722.247 L 942.683 722.247 Z  M 942.683 820.212 L 962.276 820.212 L 962.276 820.212 Q 971.295 820.212 975.649 815.392 L 975.649 815.392 L 975.649 815.392 Q 980.003 810.571 980.003 798.753 L 980.003 798.753 L 980.003 779.782 L 980.003 779.782 Q 980.003 764.854 974.872 759.101 L 974.872 759.101 L 974.872 759.101 Q 969.74 753.347 957.922 753.347 L 957.922 753.347 L 942.683 753.347 L 942.683 820.212 L 942.683 820.212 Z  M 1083.877 854.422 L 1083.877 854.422 Q 1058.997 854.422 1045.935 840.272 L 1045.935 840.272 L 1045.935 840.272 Q 1032.873 826.121 1032.873 799.686 L 1032.873 799.686 L 1032.873 633.612 L 1067.083 633.612 L 1067.083 802.174 L 1067.083 802.174 Q 1067.083 813.37 1071.593 818.346 L 1071.593 818.346 L 1071.593 818.346 Q 1076.102 823.322 1084.499 823.322 L 1084.499 823.322 L 1084.499 823.322 Q 1092.896 823.322 1097.405 818.346 L 1097.405 818.346 L 1097.405 818.346 Q 1101.915 813.37 1101.915 802.174 L 1101.915 802.174 L 1101.915 633.612 L 1134.881 633.612 L 1134.881 799.686 L 1134.881 799.686 Q 1134.881 826.121 1121.819 840.272 L 1121.819 840.272 L 1121.819 840.272 Q 1108.757 854.422 1083.877 854.422 L 1083.877 854.422 L 1083.877 854.422 Z  M 1159.139 851.312 L 1159.139 633.612 L 1193.349 633.612 L 1193.349 851.312 L 1159.139 851.312 L 1159.139 851.312 Z  M 1218.851 851.312 L 1218.851 633.612 L 1253.061 633.612 L 1253.061 820.212 L 1309.352 820.212 L 1309.352 851.312 L 1218.851 851.312 L 1218.851 851.312 Z  M 1325.835 851.312 L 1325.835 633.612 L 1378.083 633.612 L 1378.083 633.612 Q 1403.585 633.612 1416.336 647.296 L 1416.336 647.296 L 1416.336 647.296 Q 1429.087 660.98 1429.087 687.415 L 1429.087 687.415 L 1429.087 797.509 L 1429.087 797.509 Q 1429.087 823.944 1416.336 837.628 L 1416.336 837.628 L 1416.336 837.628 Q 1403.585 851.312 1378.083 851.312 L 1378.083 851.312 L 1325.835 851.312 L 1325.835 851.312 Z  M 1360.045 820.212 L 1377.461 820.212 L 1377.461 820.212 Q 1385.858 820.212 1390.368 815.236 L 1390.368 815.236 L 1390.368 815.236 Q 1394.877 810.26 1394.877 799.064 L 1394.877 799.064 L 1394.877 685.86 L 1394.877 685.86 Q 1394.877 674.664 1390.368 669.688 L 1390.368 669.688 L 1390.368 669.688 Q 1385.858 664.712 1377.461 664.712 L 1377.461 664.712 L 1360.045 664.712 L 1360.045 820.212 L 1360.045 820.212 Z  M 1452.101 851.312 L 1452.101 633.612 L 1545.401 633.612 L 1545.401 664.712 L 1486.311 664.712 L 1486.311 722.247 L 1533.272 722.247 L 1533.272 753.347 L 1486.311 753.347 L 1486.311 820.212 L 1545.401 820.212 L 1545.401 851.312 L 1452.101 851.312 L 1452.101 851.312 Z  M 1564.994 851.312 L 1564.994 633.612 L 1615.687 633.612 L 1615.687 633.612 Q 1642.122 633.612 1654.251 645.897 L 1654.251 645.897 L 1654.251 645.897 Q 1666.38 658.181 1666.38 683.683 L 1666.38 683.683 L 1666.38 697.056 L 1666.38 697.056 Q 1666.38 730.955 1643.988 739.974 L 1643.988 739.974 L 1643.988 740.596 L 1643.988 740.596 Q 1656.428 744.328 1661.56 755.835 L 1661.56 755.835 L 1661.56 755.835 Q 1666.691 767.342 1666.691 786.624 L 1666.691 786.624 L 1666.691 824.877 L 1666.691 824.877 Q 1666.691 834.207 1667.313 839.961 L 1667.313 839.961 L 1667.313 839.961 Q 1667.935 845.714 1670.423 851.312 L 1670.423 851.312 L 1635.591 851.312 L 1635.591 851.312 Q 1633.725 846.025 1633.103 841.36 L 1633.103 841.36 L 1633.103 841.36 Q 1632.481 836.695 1632.481 824.566 L 1632.481 824.566 L 1632.481 784.758 L 1632.481 784.758 Q 1632.481 769.83 1627.661 763.921 L 1627.661 763.921 L 1627.661 763.921 Q 1622.84 758.012 1611.022 758.012 L 1611.022 758.012 L 1599.204 758.012 L 1599.204 851.312 L 1564.994 851.312 L 1564.994 851.312 Z  M 1599.204 726.912 L 1611.644 726.912 L 1611.644 726.912 Q 1621.907 726.912 1627.039 721.625 L 1627.039 721.625 L 1627.039 721.625 Q 1632.17 716.338 1632.17 703.898 L 1632.17 703.898 L 1632.17 687.104 L 1632.17 687.104 Q 1632.17 675.286 1627.972 669.999 L 1627.972 669.999 L 1627.972 669.999 Q 1623.773 664.712 1614.754 664.712 L 1614.754 664.712 L 1599.204 664.712 L 1599.204 726.912 L 1599.204 726.912 Z " fill="rgb(230,122,71)"/><path d=" M 565.751 851.312 L 565.751 633.612 L 659.051 633.612 L 659.051 664.712 L 599.961 664.712 L 599.961 722.247 L 646.922 722.247 L 646.922 753.347 L 599.961 753.347 L 599.961 820.212 L 659.051 820.212 L 659.051 851.312 L 565.751 851.312 L 565.751 851.312 Z  M 705.39 851.312 L 705.39 664.712 L 669.625 664.712 L 669.625 633.612 L 775.365 633.612 L 775.365 664.712 L 739.6 664.712 L 739.6 851.312 L 705.39 851.312 L 705.39 851.312 Z  M 838.809 854.422 L 838.809 854.422 Q 814.24 854.422 801.334 840.427 L 801.334 840.427 L 801.334 840.427 Q 788.427 826.432 788.427 800.93 L 788.427 800.93 L 788.427 683.994 L 788.427 683.994 Q 788.427 658.492 801.334 644.497 L 801.334 644.497 L 801.334 644.497 Q 814.24 630.502 838.809 630.502 L 838.809 630.502 L 838.809 630.502 Q 863.378 630.502 876.285 644.497 L 876.285 644.497 L 876.285 644.497 Q 889.191 658.492 889.191 683.994 L 889.191 683.994 L 889.191 707.008 L 856.847 707.008 L 856.847 681.817 L 856.847 681.817 Q 856.847 661.602 839.742 661.602 L 839.742 661.602 L 839.742 661.602 Q 822.637 661.602 822.637 681.817 L 822.637 681.817 L 822.637 803.418 L 822.637 803.418 Q 822.637 823.322 839.742 823.322 L 839.742 823.322 L 839.742 823.322 Q 856.847 823.322 856.847 803.418 L 856.847 803.418 L 856.847 770.141 L 889.191 770.141 L 889.191 800.93 L 889.191 800.93 Q 889.191 826.432 876.285 840.427 L 876.285 840.427 L 876.285 840.427 Q 863.378 854.422 838.809 854.422 L 838.809 854.422 L 838.809 854.422 Z " fill="rgb(136,123,111)"/></g></svg>